<?xml version="1.0" encoding="UTF-8"?>
<svg xmlns="http://www.w3.org/2000/svg" xmlns:xlink="http://www.w3.org/1999/xlink" width="761.31pt" height="615.25pt" viewBox="0 0 761.31 615.25" version="1.1">
<defs>
<clipPath id="clip1">
  <path d="M 717 468 L 761.308594 468 L 761.308594 582 L 717 582 Z M 717 468 "/>
</clipPath>
<clipPath id="clip2">
  <path d="M 313 494 L 392 494 L 392 615.25 L 313 615.25 Z M 313 494 "/>
</clipPath>
</defs>
<g id="surface1">
<path style=" stroke:none;fill-rule:evenodd;fill:rgb(12.199402%,29.399109%,53.69873%);fill-opacity:1;" d="M 566.835938 140.011719 C 567.988281 143.167969 568.710938 146.433594 569.347656 149.722656 C 569.925781 150.730469 569.304688 151.496094 568.6875 152.089844 C 565.203125 155.445313 565.1875 159.71875 566.359375 163.742188 C 567.945313 169.195313 568.957031 175.019531 573.238281 179.351563 C 574.347656 180.46875 573.550781 182.023438 573.769531 183.359375 C 574.261719 189.261719 574.160156 195.171875 573.828125 201.070313 C 573.585938 205.390625 573.425781 209.730469 572.683594 214.015625 C 567.460938 213.769531 563.972656 216.921875 560.304688 220.023438 C 552.882813 226.300781 545.101563 232.136719 537.339844 237.988281 C 530.867188 242.863281 529.496094 247.109375 531.871094 254.78125 C 532.988281 258.386719 534.113281 261.980469 535.863281 265.339844 C 538.40625 270.234375 541.957031 271.429688 546.972656 269.039063 C 550.960938 267.140625 554.097656 264.035156 557.585938 261.425781 C 558.789063 260.523438 559.75 259.03125 561.605469 259.335938 C 559.425781 266.265625 556.253906 272.769531 552.980469 279.21875 C 548.210938 288.617188 542.613281 297.511719 536.335938 305.976563 C 536.042969 306.371094 535.683594 306.710938 535.351563 307.078125 C 533.296875 307.988281 531.789063 309.519531 530.398438 311.25 C 516.054688 329.144531 498.703125 343.433594 478.609375 354.453125 C 456.707031 366.46875 433.265625 373.367188 408.457031 375.824219 C 402.042969 376.460938 395.628906 376.9375 389.171875 376.992188 C 371.945313 377.140625 355.472656 373.40625 339.480469 367.351563 C 322.273438 360.835938 306.5 351.71875 291.90625 340.535156 C 289.421875 337.816406 287.726563 334.523438 285.449219 331.640625 C 281.273438 326.347656 276.632813 321.707031 270.113281 319.375 C 267.414063 315.78125 264.503906 312.347656 262.011719 308.597656 C 261.320313 307.558594 260.382813 306.59375 260.597656 305.167969 C 262.6875 302.714844 262.152344 300.253906 260.621094 297.789063 C 256.859375 291.746094 253.46875 285.429688 248.039063 280.605469 C 247.664063 280.273438 247.421875 279.839844 247.234375 279.371094 C 241.699219 261.820313 236.984375 244.070313 234.828125 225.753906 C 233.261719 212.429688 232.902344 199.074219 233.855469 185.652344 C 234.941406 170.394531 237.863281 155.535156 242.65625 141.0625 C 250.339844 117.878906 262.089844 97 278.433594 78.726563 C 294.175781 61.125 312.617188 47.121094 333.457031 36.101563 C 357.019531 23.644531 382.058594 16.0625 408.464844 13.027344 C 421.777344 11.5 435.160156 11.097656 448.523438 12.808594 C 450.496094 13.058594 452.367188 13.730469 454.300781 14.15625 C 462.53125 17.152344 470.304688 21.132813 477.863281 25.519531 C 510.222656 44.292969 535.066406 70.292969 552.523438 103.371094 C 552.84375 103.980469 553.066406 104.644531 553.335938 105.28125 C 553.679688 106.769531 552.515625 107.402344 551.648438 108.152344 C 546.574219 112.527344 545.394531 117.492188 548.234375 123.578125 C 550.289063 127.984375 552.441406 132.355469 554.746094 136.640625 C 557.152344 141.121094 559.195313 141.851563 564.027344 140.277344 C 564.933594 139.980469 565.828125 139.304688 566.835938 140.011719 "/>
<path style=" stroke:none;fill-rule:evenodd;fill:rgb(22.698975%,48.199463%,74.499512%);fill-opacity:1;" d="M 454.300781 14.152344 C 451.890625 14.523438 449.589844 13.640625 447.230469 13.4375 C 445.367188 13.277344 443.488281 12.941406 441.621094 13.058594 C 438.722656 13.238281 435.910156 12.476563 433.035156 12.464844 C 426.097656 12.433594 419.195313 12.992188 412.289063 13.582031 C 397.546875 14.84375 383.15625 17.777344 369.039063 22.195313 C 359.179688 25.28125 349.621094 29.0625 340.3125 33.550781 C 330.191406 38.425781 320.503906 44.007813 311.34375 50.5 C 305.363281 54.738281 299.65625 59.3125 294.140625 64.160156 C 290.179688 67.640625 286.386719 71.28125 282.789063 75.105469 C 274.285156 84.148438 266.710938 93.914063 260.265625 104.550781 C 252.878906 116.746094 247.148438 129.6875 242.78125 143.230469 C 239.988281 151.898438 237.933594 160.761719 236.519531 169.773438 C 235.65625 175.242188 235.183594 180.746094 234.640625 186.257813 C 233.855469 194.199219 233.996094 202.140625 234.316406 210.046875 C 234.597656 216.929688 235.304688 223.820313 236.351563 230.675781 C 237.878906 240.664063 239.894531 250.527344 242.507813 260.273438 C 243.996094 265.816406 245.6875 271.308594 247.28125 276.824219 C 247.554688 277.769531 248.019531 278.675781 247.9375 279.707031 C 247.171875 280.179688 246.371094 280.023438 245.65625 279.691406 C 242.113281 278.050781 238.359375 278.085938 234.585938 278.109375 C 227.851563 278.152344 221.117188 278.160156 214.382813 278.09375 C 212.980469 278.078125 211.34375 278.511719 210.378906 276.898438 C 208.925781 272.894531 206.628906 269.25 205.378906 265.160156 C 206.113281 263.898438 207.328125 264.488281 208.332031 264.453125 C 215.964844 264.183594 223.625 265.011719 231.238281 263.910156 C 232.023438 263.796875 232.808594 263.671875 233.574219 263.4375 C 236.988281 262.398438 238.242188 260.105469 236.957031 256.804688 C 234.679688 250.960938 231.648438 245.476563 228.453125 240.101563 C 225.738281 235.53125 221.273438 233.785156 216.246094 234.148438 C 210.710938 234.550781 205.160156 234.894531 199.644531 235.554688 C 198.21875 235.722656 196.644531 236.074219 195.464844 234.738281 C 192.851563 223.285156 191.367188 211.675781 190.804688 199.960938 C 190.273438 188.933594 190.632813 177.90625 192.050781 166.949219 C 195.367188 141.296875 203.644531 117.300781 216.832031 95.078125 C 240.539063 55.140625 274.289063 27.152344 317.863281 11.078125 C 334.839844 4.820313 352.394531 1.351563 370.476563 0.328125 C 398.964844 -1.285156 426.476563 2.980469 453.027344 13.433594 C 453.476563 13.609375 453.878906 13.910156 454.300781 14.152344 "/>
<path style=" stroke:none;fill-rule:evenodd;fill:rgb(11.799622%,19.999695%,35.699463%);fill-opacity:1;" d="M 132.8125 543.792969 C 132.8125 533.664063 132.804688 523.53125 132.820313 513.398438 C 132.824219 511.914063 132.851563 510.414063 133.027344 508.941406 C 133.628906 503.933594 136.480469 500.882813 141.316406 499.578125 C 144.796875 498.640625 148.371094 498.445313 151.929688 498.1875 C 160.554688 497.566406 169.179688 497.148438 177.789063 498.421875 C 180.9375 498.886719 184.015625 499.625 187.023438 500.6875 C 198.34375 504.683594 204.386719 513.027344 206.695313 524.46875 C 207.667969 529.261719 207.941406 534.109375 207.941406 538.984375 C 207.941406 551.300781 207.941406 563.617188 207.941406 575.933594 C 207.941406 576.429688 207.949219 576.929688 207.929688 577.421875 C 207.78125 580.566406 206.96875 581.535156 203.785156 581.613281 C 198.523438 581.734375 193.257813 581.726563 187.996094 581.644531 C 184.175781 581.585938 183.09375 580.40625 183.085938 576.523438 C 183.0625 563.414063 183.082031 550.300781 183.074219 537.191406 C 183.074219 534.308594 182.996094 531.441406 182.335938 528.605469 C 181.105469 523.328125 177.96875 520.0625 172.574219 519.046875 C 168.128906 518.214844 163.671875 518.535156 159.210938 518.777344 C 158.019531 518.84375 157.355469 519.332031 157.453125 520.621094 C 157.507813 521.316406 157.460938 522.011719 157.460938 522.707031 C 157.460938 540.488281 157.464844 558.265625 157.460938 576.046875 C 157.460938 580.96875 156.78125 581.644531 151.75 581.667969 C 147.378906 581.691406 143.011719 581.675781 138.640625 581.671875 C 138.34375 581.671875 138.042969 581.679688 137.746094 581.667969 C 133.902344 581.503906 132.828125 580.425781 132.820313 576.570313 C 132.800781 567.433594 132.8125 558.296875 132.8125 549.15625 "/>
<path style=" stroke:none;fill-rule:evenodd;fill:rgb(11.799622%,19.999695%,35.699463%);fill-opacity:1;" d="M 536.316406 543.621094 C 536.3125 533.6875 536.3125 523.753906 536.320313 513.824219 C 536.320313 512.433594 536.34375 511.039063 536.449219 509.65625 C 536.851563 504.257813 539.457031 501.085938 544.648438 499.609375 C 548.214844 498.597656 551.894531 498.429688 555.554688 498.167969 C 564.175781 497.558594 572.808594 497.148438 581.410156 498.441406 C 585.253906 499.015625 589.003906 499.96875 592.582031 501.5 C 602.105469 505.578125 607.460938 513.03125 609.820313 522.890625 C 611.035156 527.941406 611.394531 533.097656 611.421875 538.261719 C 611.496094 550.773438 611.445313 563.289063 611.445313 575.804688 L 611.445313 576.101563 C 611.414063 580.816406 610.628906 581.628906 605.878906 581.667969 C 601.308594 581.703125 596.738281 581.691406 592.171875 581.660156 C 591.183594 581.652344 590.183594 581.558594 589.21875 581.351563 C 587.691406 581.023438 586.839844 579.96875 586.652344 578.4375 C 586.546875 577.554688 586.585938 576.65625 586.585938 575.761719 C 586.578125 562.949219 586.574219 550.136719 586.585938 537.324219 C 586.585938 534.136719 586.382813 530.980469 585.566406 527.878906 C 584.304688 523.09375 581.296875 520.171875 576.445313 519.140625 C 571.816406 518.160156 567.160156 518.535156 562.5 518.796875 C 561.429688 518.859375 560.859375 519.339844 560.929688 520.476563 C 560.972656 521.171875 560.933594 521.867188 560.933594 522.5625 L 560.933594 575.304688 C 560.933594 576 560.953125 576.695313 560.929688 577.390625 C 560.828125 580.515625 559.980469 581.535156 556.824219 581.609375 C 551.5625 581.734375 546.296875 581.730469 541.035156 581.640625 C 537.347656 581.574219 536.335938 580.457031 536.328125 576.695313 C 536.296875 565.671875 536.316406 554.644531 536.316406 543.621094 "/>
<path style=" stroke:none;fill-rule:evenodd;fill:rgb(11.799622%,19.999695%,35.699463%);fill-opacity:1;" d="M 38.796875 582.09375 C 34.277344 582.183594 29.933594 581.859375 25.667969 580.746094 C 15.230469 578.019531 7.785156 571.742188 4 561.652344 C -1.019531 548.277344 -1.367188 534.613281 3.261719 521.078125 C 8.421875 505.984375 20.59375 497.238281 36.503906 496.589844 C 45.566406 496.222656 54.320313 497.554688 62.648438 501.277344 C 63.371094 501.601563 64.105469 501.921875 64.777344 502.332031 C 66.636719 503.476563 67.179688 504.558594 66.492188 506.570313 C 64.980469 510.980469 63.386719 515.367188 61.671875 519.703125 C 60.820313 521.855469 59.425781 522.457031 57.101563 521.925781 C 54.105469 521.242188 51.15625 520.335938 48.152344 519.699219 C 45.136719 519.058594 42.070313 518.738281 38.972656 519.066406 C 34.480469 519.539063 31.214844 521.84375 28.96875 525.707031 C 27.910156 527.53125 27.191406 529.488281 26.753906 531.53125 C 25.566406 537.035156 25.507813 542.574219 26.65625 548.089844 C 28.285156 555.863281 32.917969 559.664063 40.894531 559.785156 C 45.90625 559.863281 50.761719 558.839844 55.519531 557.335938 C 56.75 556.949219 57.949219 556.460938 59.183594 556.097656 C 61.792969 555.332031 62.847656 555.78125 63.839844 558.296875 C 65.441406 562.359375 66.964844 566.453125 68.453125 570.554688 C 69.378906 573.097656 68.917969 574.40625 66.542969 575.777344 C 63.085938 577.78125 59.339844 579.105469 55.476563 580.082031 C 49.964844 581.472656 44.355469 582.164063 38.796875 582.09375 "/>
<g clip-path="url(#clip1)" clip-rule="nonzero">
<path style=" stroke:none;fill-rule:evenodd;fill:rgb(11.799622%,19.999695%,35.699463%);fill-opacity:1;" d="M 717.632813 520.113281 C 717.632813 505.109375 717.632813 490.101563 717.632813 475.097656 C 717.632813 474.300781 717.601563 473.503906 717.644531 472.710938 C 717.789063 469.992188 718.761719 468.925781 721.472656 468.792969 C 723.753906 468.679688 726.039063 468.761719 728.328125 468.757813 C 731.40625 468.757813 734.488281 468.71875 737.570313 468.769531 C 741.382813 468.839844 742.347656 469.773438 742.371094 473.550781 C 742.414063 480.804688 742.378906 488.058594 742.390625 495.3125 C 742.394531 498.078125 742.410156 498.09375 745.152344 498.101563 C 749.027344 498.117188 752.902344 498.0625 756.777344 498.121094 C 760.4375 498.175781 761.273438 499.074219 761.300781 502.796875 C 761.320313 505.976563 761.320313 509.15625 761.296875 512.335938 C 761.269531 516.199219 760.484375 516.964844 756.515625 516.988281 C 752.539063 517.007813 748.5625 516.972656 744.589844 516.996094 C 742.316406 517.011719 742.273438 517.042969 742.273438 519.300781 C 742.253906 529.734375 742.265625 540.167969 742.265625 550.605469 C 742.265625 559.449219 742.269531 568.292969 742.261719 577.136719 C 742.257813 579.972656 742.246094 580.011719 739.472656 580.800781 C 735.769531 581.855469 732.011719 581.953125 728.273438 581.03125 C 722.304688 579.5625 718.707031 575.296875 717.878906 568.703125 C 717.667969 567.03125 717.644531 565.332031 717.644531 563.644531 C 717.625 549.136719 717.632813 534.625 717.632813 520.113281 "/>
</g>
<path style=" stroke:none;fill-rule:evenodd;fill:rgb(11.799622%,19.999695%,35.699463%);fill-opacity:1;" d="M 430.894531 525.359375 C 430.894531 542.453125 430.898438 559.542969 430.894531 576.636719 C 430.894531 579.996094 430.894531 580.011719 427.664063 580.859375 C 424.4375 581.710938 421.167969 581.820313 417.914063 581.144531 C 411.769531 579.871094 407.570313 575.304688 406.566406 568.835938 C 406.3125 567.175781 406.242188 565.472656 406.238281 563.785156 C 406.175781 534.371094 406.136719 504.960938 406.097656 475.546875 C 406.097656 474.453125 406.070313 473.351563 406.207031 472.273438 C 406.519531 469.785156 407.542969 468.6875 410.085938 468.636719 C 415.648438 468.523438 421.21875 468.503906 426.777344 468.636719 C 430.027344 468.71875 431.003906 470.046875 431.003906 473.785156 C 431 489.1875 430.972656 504.589844 430.953125 519.992188 C 430.949219 521.78125 430.953125 523.574219 430.953125 525.359375 "/>
<path style=" stroke:none;fill-rule:evenodd;fill:rgb(22.698975%,48.199463%,74.499512%);fill-opacity:1;" d="M 291.847656 339.753906 C 294.371094 340.785156 296.265625 342.742188 298.421875 344.296875 C 314.484375 355.878906 331.941406 364.644531 350.882813 370.417969 C 358.738281 372.8125 366.773438 374.480469 374.917969 375.53125 C 382.019531 376.441406 389.1875 376.507813 396.296875 376.070313 C 405.746094 375.488281 415.171875 374.511719 424.519531 372.757813 C 439.195313 370 453.28125 365.554688 466.90625 359.464844 C 479.199219 353.976563 490.554688 346.957031 501.214844 338.828125 C 508.542969 333.238281 515.457031 327.105469 521.648438 320.25 C 524.625 316.953125 527.628906 313.65625 530.308594 310.085938 C 531.519531 308.464844 532.789063 306.589844 535.351563 307.078125 C 531.527344 312.78125 526.953125 317.878906 522.269531 322.867188 C 500.300781 346.28125 474.109375 363.1875 443.714844 373.535156 C 430.992188 377.867188 417.933594 380.722656 404.574219 382.308594 C 392.988281 383.6875 381.371094 383.90625 369.769531 383.1875 C 351.339844 382.042969 333.429688 378.183594 316.089844 371.761719 C 297.792969 364.984375 280.9375 355.605469 265.460938 343.734375 C 264.601563 343.074219 263.652344 342.5 263.019531 341.574219 C 264.191406 340.507813 265.605469 340.746094 266.960938 340.933594 C 272.632813 341.710938 278.328125 342.292969 284.011719 342.964844 C 287.246094 343.347656 290.164063 343.09375 291.847656 339.753906 "/>
<path style=" stroke:none;fill-rule:evenodd;fill:rgb(11.799622%,19.999695%,35.699463%);fill-opacity:1;" d="M 112.660156 540.777344 C 112.660156 552.792969 112.660156 564.8125 112.660156 576.832031 C 112.65625 580.003906 112.652344 580.015625 109.558594 580.84375 C 106.339844 581.710938 103.058594 581.851563 99.820313 581.144531 C 93.78125 579.824219 90.160156 575.96875 88.683594 570.03125 C 88.226563 568.195313 88.085938 566.320313 88.085938 564.421875 C 88.074219 544.652344 88.050781 524.886719 88.03125 505.121094 C 88.03125 504.328125 88 503.523438 88.109375 502.742188 C 88.382813 500.746094 89.40625 499.660156 91.445313 499.628906 C 97.40625 499.550781 103.367188 499.535156 109.324219 499.640625 C 111.671875 499.683594 112.636719 500.839844 112.847656 503.234375 C 112.914063 504.023438 112.875 504.820313 112.875 505.617188 L 112.875 540.777344 "/>
<path style=" stroke:none;fill-rule:evenodd;fill:rgb(7.099915%,66.699219%,72.198486%);fill-opacity:1;" d="M 561.605469 259.335938 C 558.398438 261.8125 555.1875 264.285156 551.992188 266.773438 C 550.265625 268.117188 548.429688 269.28125 546.425781 270.167969 C 541.203125 272.476563 537.511719 269.988281 535.609375 266.480469 C 533.902344 263.332031 532.671875 259.996094 531.679688 256.566406 C 530.996094 254.207031 529.910156 251.964844 529.917969 249.398438 C 529.929688 245.019531 531.691406 241.488281 535.042969 238.851563 C 541.722656 233.585938 548.621094 228.601563 555.195313 223.195313 C 558.097656 220.808594 561.035156 218.46875 563.929688 216.074219 C 565.019531 215.175781 566.300781 214.652344 567.519531 213.992188 C 569.253906 213.050781 570.964844 213.382813 572.683594 214.011719 C 574.554688 216.113281 575.792969 218.5625 576.683594 221.214844 C 577.628906 224.019531 578.6875 226.789063 579.597656 229.609375 C 580.050781 231.011719 580.394531 232.46875 580.601563 233.929688 C 581.359375 239.191406 579.898438 243.640625 575.828125 247.246094 C 572.273438 250.394531 568.621094 253.417969 564.964844 256.441406 C 563.828125 257.382813 562.722656 258.371094 561.605469 259.335938 "/>
<path style=" stroke:none;fill-rule:evenodd;fill:rgb(82.398987%,35.699463%,16.899109%);fill-opacity:1;" d="M 195.464844 234.738281 C 199.84375 234.929688 204.164063 234.117188 208.523438 233.980469 C 212.472656 233.855469 216.371094 232.8125 220.367188 233.589844 C 224.078125 234.308594 227.078125 236.023438 229.007813 239.316406 C 232.21875 244.800781 235.179688 250.425781 237.703125 256.261719 C 239.441406 260.269531 238.089844 262.9375 233.847656 264.21875 C 231.554688 264.910156 229.179688 265.15625 226.796875 265.164063 C 219.65625 265.183594 212.519531 265.164063 205.378906 265.160156 C 204.460938 264.679688 203.445313 264.820313 202.46875 264.726563 C 197.742188 264.265625 194.007813 262.195313 191.5625 258.023438 C 188.90625 253.496094 186.679688 248.757813 184.652344 243.921875 C 184.386719 243.289063 184.171875 242.621094 184.046875 241.945313 C 183.371094 238.242188 184.941406 236.019531 188.691406 235.472656 C 190.9375 235.144531 193.207031 234.976563 195.464844 234.738281 "/>
<path style=" stroke:none;fill-rule:evenodd;fill:rgb(7.499695%,48.599243%,60.798645%);fill-opacity:1;" d="M 566.835938 140.011719 C 565.445313 140.53125 564.085938 141.152344 562.660156 141.539063 C 560.164063 142.222656 557.40625 142.328125 555.226563 138.878906 C 554.75 138.125 554.253906 137.378906 553.851563 136.585938 C 551.75 132.417969 549.703125 128.222656 547.582031 124.0625 C 544.566406 118.152344 545.957031 110.347656 551.363281 107.464844 C 552.214844 107.011719 552.898438 106.207031 553.335938 105.277344 C 554.105469 105.3125 554.601563 104.820313 555.144531 104.386719 C 559.480469 100.914063 563.839844 97.472656 567.914063 93.683594 C 568.207031 93.414063 568.492188 93.140625 568.789063 92.878906 C 572.621094 89.445313 575.3125 89.785156 577.796875 94.347656 C 580.6875 99.652344 583.46875 105.035156 586.035156 110.503906 C 588.429688 115.605469 588.171875 121.171875 582.863281 125.445313 C 578 129.363281 573.453125 133.667969 568.777344 137.816406 C 568.046875 138.464844 567.152344 138.988281 566.835938 140.011719 "/>
<path style=" stroke:none;fill-rule:evenodd;fill:rgb(79.998779%,12.5%,32.199097%);fill-opacity:1;" d="M 210.378906 276.898438 C 218.097656 276.96875 225.816406 277.035156 233.53125 277.105469 C 235.414063 277.121094 237.296875 277.125 239.175781 277.144531 C 242.332031 277.179688 245.117188 278.503906 247.933594 279.707031 C 253.007813 283.488281 255.871094 289.015625 259.265625 294.113281 C 260.308594 295.679688 261.28125 297.304688 262.132813 298.980469 C 263.507813 301.691406 263.203125 303.09375 260.992188 305.296875 C 258.535156 307.511719 255.535156 307.34375 252.5625 307.164063 C 245.039063 306.71875 237.597656 305.640625 230.179688 304.34375 C 228.765625 304.09375 227.550781 303.539063 226.324219 302.902344 C 224.351563 302.257813 222.355469 301.679688 220.414063 300.949219 C 217.472656 299.847656 215.039063 298.089844 213.320313 295.363281 C 211.050781 291.765625 208.660156 288.246094 206.347656 284.675781 C 205.539063 283.425781 204.871094 282.105469 204.855469 280.546875 C 204.835938 278.417969 205.59375 277.449219 207.71875 277.113281 C 208.59375 276.976563 209.488281 276.964844 210.378906 276.898438 "/>
<path style=" stroke:none;fill-rule:evenodd;fill:rgb(2.398682%,56.098938%,66.299438%);fill-opacity:1;" d="M 573.769531 183.359375 C 573.628906 181.347656 572.902344 179.78125 571.28125 178.351563 C 569.480469 176.769531 568.996094 174.230469 568.144531 172.019531 C 567.433594 170.171875 566.996094 168.214844 566.21875 166.398438 C 564.964844 163.457031 565.007813 160.398438 565.121094 157.324219 C 565.1875 155.347656 566.15625 153.746094 567.449219 152.308594 C 568.164063 151.507813 569.183594 150.925781 569.347656 149.722656 C 570.480469 149.699219 571.0625 148.796875 571.765625 148.144531 C 576.996094 143.289063 582.203125 138.410156 587.421875 133.546875 C 588 133.007813 588.574219 132.4375 589.238281 132.023438 C 591.742188 130.449219 593.804688 130.886719 595.207031 133.492188 C 597.988281 138.664063 600.082031 144.132813 601.296875 149.871094 C 602.1875 154.078125 601.207031 157.90625 598.179688 161.148438 C 594.050781 165.5625 590.019531 170.070313 585.921875 174.511719 C 584.980469 175.527344 583.96875 176.484375 582.925781 177.402344 C 580.429688 179.605469 577.820313 181.570313 574.257813 180.65625 C 573.546875 181.585938 574.140625 182.546875 573.769531 183.359375 "/>
<path style=" stroke:none;fill-rule:evenodd;fill:rgb(67.098999%,16.099548%,36.099243%);fill-opacity:1;" d="M 291.847656 339.753906 C 291.660156 342.582031 291.117188 343.320313 288.566406 343.777344 C 286.714844 344.105469 284.847656 343.929688 282.976563 343.691406 C 277.121094 342.957031 271.253906 342.289063 265.386719 341.621094 C 264.605469 341.53125 263.8125 341.589844 263.023438 341.574219 C 260.953125 340.773438 258.746094 340.734375 256.589844 340.464844 C 249.589844 339.585938 243.636719 336.894531 239.28125 331.109375 C 237.191406 328.335938 234.9375 325.683594 232.773438 322.960938 C 232.277344 322.34375 231.785156 321.707031 231.40625 321.015625 C 230.085938 318.601563 230.890625 316.773438 233.578125 316.066406 C 234.34375 315.867188 235.144531 315.820313 235.933594 315.707031 C 239.640625 314.199219 243.34375 315.65625 247.007813 315.902344 C 252.996094 316.308594 258.984375 316.84375 264.96875 317.4375 C 266.949219 317.632813 268.894531 317.808594 270.5625 319.042969 C 278.878906 321.347656 283.429688 328.046875 288.308594 334.328125 C 289.628906 336.027344 290.675781 337.941406 291.847656 339.753906 "/>
<path style=" stroke:none;fill-rule:evenodd;fill:rgb(71.798706%,5.899048%,48.599243%);fill-opacity:1;" d="M 202.40625 301.214844 C 196.628906 300.300781 190.84375 299.441406 185.078125 298.453125 C 181.367188 297.820313 177.683594 297.015625 173.992188 296.265625 C 168.78125 295.207031 164.636719 292.59375 161.863281 287.949219 C 160.082031 284.96875 158.21875 282.039063 156.433594 279.0625 C 155.664063 277.785156 155.011719 276.441406 154.863281 274.921875 C 154.648438 272.734375 155.628906 271.558594 157.839844 271.367188 C 158.328125 271.324219 158.847656 271.304688 159.320313 271.410156 C 166.980469 273.171875 174.828125 273.597656 182.578125 274.707031 C 184.046875 274.917969 185.511719 275.183594 186.96875 275.472656 C 190.824219 276.238281 193.925781 278.164063 196.300781 281.351563 C 199.503906 285.65625 202.253906 290.253906 205.257813 294.6875 C 205.746094 295.414063 206.0625 296.285156 206.324219 297.128906 C 207.117188 299.695313 206.246094 300.9375 203.617188 301.085938 C 203.222656 301.109375 202.824219 301.089844 202.429688 301.089844 C 202.421875 301.132813 202.414063 301.171875 202.40625 301.214844 "/>
<path style=" stroke:none;fill-rule:evenodd;fill:rgb(50.19989%,13.699341%,50.19989%);fill-opacity:1;" d="M 228.390625 335.242188 C 224.011719 334.871094 219.738281 333.941406 215.464844 333.097656 C 209.339844 331.886719 203.273438 330.390625 197.175781 329.050781 C 190.894531 327.667969 185.84375 324.429688 182.105469 319.183594 C 180.496094 316.921875 178.878906 314.664063 177.351563 312.347656 C 176.757813 311.449219 176.273438 310.429688 175.972656 309.398438 C 175.527344 307.863281 176.191406 306.871094 177.78125 306.628906 C 178.644531 306.496094 179.585938 306.507813 180.4375 306.699219 C 190.015625 308.851563 199.691406 310.511719 209.332031 312.324219 C 211.382813 312.710938 213.359375 313.363281 215.304688 314.121094 C 217.945313 315.15625 220.214844 316.699219 222 318.917969 C 224.921875 322.550781 227.835938 326.191406 230.75 329.828125 C 230.875 329.984375 231 330.140625 231.105469 330.308594 C 231.832031 331.476563 232.902344 332.671875 232.132813 334.109375 C 231.339844 335.597656 229.722656 335.152344 228.390625 335.242188 "/>
<path style=" stroke:none;fill-rule:evenodd;fill:rgb(46.299744%,8.599854%,32.499695%);fill-opacity:1;" d="M 135.761719 258.046875 C 135.46875 257.992188 134.875 257.917969 134.300781 257.765625 C 129.117188 256.394531 124.019531 254.765625 119.066406 252.695313 C 114.726563 250.882813 111.605469 247.910156 109.757813 243.566406 C 108.476563 240.554688 107.078125 237.589844 105.738281 234.601563 C 105.539063 234.152344 105.347656 233.691406 105.175781 233.226563 C 104.652344 231.816406 104.042969 230.289063 105.265625 229.046875 C 106.382813 227.910156 107.855469 228.425781 109.214844 228.789063 C 114.480469 230.210938 119.746094 231.644531 125.023438 233.019531 C 129.34375 234.144531 132.421875 236.613281 134.15625 240.808594 C 135.601563 244.289063 137.261719 247.679688 138.789063 251.125 C 139.191406 252.027344 139.574219 252.964844 139.769531 253.925781 C 140.367188 256.84375 139.085938 258.234375 135.761719 258.046875 "/>
<path style=" stroke:none;fill-rule:evenodd;fill:rgb(39.199829%,10.198975%,32.199097%);fill-opacity:1;" d="M 154.8125 291.5625 C 154.449219 291.484375 153.664063 291.367188 152.90625 291.160156 C 145.609375 289.1875 138.53125 286.671875 131.902344 282.972656 C 129.417969 281.585938 127.320313 279.828125 125.78125 277.453125 C 123.457031 273.875 121.324219 270.179688 119.613281 266.261719 C 119.21875 265.359375 118.847656 264.414063 118.667969 263.453125 C 118.296875 261.464844 119.332031 260.382813 121.351563 260.675781 C 122.316406 260.816406 123.253906 261.222656 124.167969 261.59375 C 129.585938 263.800781 135.007813 265.992188 140.601563 267.71875 C 145.386719 269.191406 148.996094 272.027344 151.355469 276.496094 C 152.976563 279.566406 154.800781 282.523438 156.472656 285.5625 C 156.996094 286.511719 157.457031 287.53125 157.710938 288.578125 C 158.199219 290.617188 157.367188 291.546875 154.8125 291.5625 "/>
<path style=" stroke:none;fill-rule:evenodd;fill:rgb(15.299988%,40.39917%,67.799377%);fill-opacity:1;" d="M 617.28125 131.605469 C 617.304688 133.46875 616.601563 135.097656 615.730469 136.679688 C 613.8125 140.175781 611.234375 143.214844 608.855469 146.378906 C 607.285156 148.464844 605.222656 148.390625 604.152344 145.996094 C 601.492188 140.035156 598.816406 134.039063 597.804688 127.507813 C 597.457031 125.265625 598.046875 123.121094 599.367188 121.296875 C 601.871094 117.84375 604.414063 114.414063 607.085938 111.089844 C 608.738281 109.027344 610.371094 109.246094 611.296875 111.730469 C 613.4375 117.484375 615.539063 123.265625 617 129.246094 C 617.1875 130.011719 617.191406 130.816406 617.28125 131.605469 "/>
<path style=" stroke:none;fill-rule:evenodd;fill:rgb(11.799622%,19.999695%,35.699463%);fill-opacity:1;" d="M 100.390625 472.710938 C 103.167969 472.710938 105.949219 472.640625 108.726563 472.730469 C 111.652344 472.828125 112.59375 473.816406 112.644531 476.78125 C 112.703125 480.15625 112.703125 483.53125 112.644531 486.90625 C 112.59375 489.925781 111.820313 490.890625 108.746094 490.976563 C 103.195313 491.136719 97.636719 491.144531 92.082031 490.984375 C 89.050781 490.894531 88.089844 489.675781 88.042969 486.628906 C 87.992188 483.351563 87.976563 480.074219 88.050781 476.800781 C 88.113281 474.011719 89.265625 472.832031 92.054688 472.734375 C 94.828125 472.640625 97.613281 472.714844 100.390625 472.710938 "/>
<path style=" stroke:none;fill-rule:evenodd;fill:rgb(22.698975%,48.199463%,74.499512%);fill-opacity:1;" d="M 270.5625 319.042969 C 259.050781 317.566406 247.453125 317.03125 235.933594 315.707031 C 233.320313 312.347656 230.695313 309 228.109375 305.625 C 227.449219 304.765625 226.914063 303.8125 226.324219 302.902344 C 229.644531 303.394531 232.980469 303.726563 236.277344 304.421875 C 242.597656 305.75 249.03125 306.007813 255.460938 306.269531 C 257.363281 306.347656 259.15625 305.675781 260.992188 305.296875 C 262.695313 309.117188 265.539063 312.152344 268.007813 315.445313 C 268.890625 316.625 269.84375 317.746094 270.5625 319.042969 "/>
<path style=" stroke:none;fill-rule:evenodd;fill:rgb(87.799072%,60.398865%,17.999268%);fill-opacity:1;" d="M 350.160156 135.828125 C 356.574219 135.765625 360.945313 138.375 363.515625 143.96875 C 366.746094 151.007813 369.84375 158.101563 372.695313 165.304688 C 373.246094 166.691406 373.648438 168.109375 373.882813 169.597656 C 374.804688 175.472656 372.46875 179.964844 366.980469 182.332031 C 361.507813 184.695313 355.828125 186.511719 350.144531 188.285156 C 342.1875 190.769531 334.199219 193.148438 326.210938 195.527344 C 322.28125 196.699219 318.273438 197.300781 314.160156 196.800781 C 310.011719 196.296875 306.949219 194.375 305.164063 190.425781 C 301.640625 182.648438 298.234375 174.820313 295.234375 166.824219 C 292.300781 159.011719 295.484375 152.003906 303.425781 149.503906 C 317.054688 145.21875 330.480469 140.285156 344.324219 136.6875 C 346.335938 136.164063 348.390625 135.738281 350.160156 135.828125 "/>
<path style=" stroke:none;fill-rule:evenodd;fill:rgb(97.599792%,91.799927%,23.098755%);fill-opacity:1;" d="M 341.394531 251.640625 C 339.804688 251.597656 338.230469 251.558594 336.660156 251.210938 C 332.730469 250.335938 329.835938 248.171875 327.914063 244.636719 C 324.066406 237.566406 320.71875 230.261719 317.835938 222.75 C 315.347656 216.269531 317.589844 210.984375 323.898438 207.984375 C 326.523438 206.738281 329.355469 206.183594 332.132813 205.449219 C 344.324219 202.238281 356.371094 198.5625 368.28125 194.433594 C 371.71875 193.238281 375.214844 192.789063 378.828125 193.414063 C 382.859375 194.113281 386.011719 196.148438 388.308594 199.527344 C 391.164063 203.726563 393.496094 208.21875 395.582031 212.835938 C 396.769531 215.457031 397.941406 218.085938 399.089844 220.722656 C 402.089844 227.609375 400.058594 233.5 393.390625 237.035156 C 389.242188 239.234375 384.6875 240.378906 380.253906 241.792969 C 372.3125 244.324219 364.289063 246.59375 356.195313 248.582031 C 352.921875 249.386719 349.792969 250.695313 346.425781 251.183594 C 344.746094 251.425781 343.078125 251.59375 341.394531 251.640625 "/>
<path style=" stroke:none;fill-rule:evenodd;fill:rgb(87.5%,56.898499%,17.999268%);fill-opacity:1;" d="M 402.878906 247.289063 C 409.5625 247.089844 414.191406 249.597656 417.050781 255.3125 C 419.621094 260.457031 422.359375 265.519531 425.023438 270.621094 C 426.054688 272.59375 426.636719 274.714844 426.542969 276.914063 C 426.429688 279.714844 425.199219 282.042969 423.039063 283.886719 C 420.800781 285.796875 418.199219 286.96875 415.414063 287.789063 C 403.144531 291.394531 390.878906 295.023438 378.59375 298.578125 C 373.996094 299.910156 369.320313 300.75 364.5 299.894531 C 359.53125 299.011719 355.671875 296.609375 353.167969 292.089844 C 350.574219 287.402344 347.847656 282.789063 345.140625 278.164063 C 344.335938 276.785156 343.671875 275.359375 343.207031 273.832031 C 341.839844 269.316406 343.125 265.902344 347.152344 263.382813 C 349.703125 261.785156 352.5 260.703125 355.402344 260.074219 C 368.804688 257.167969 381.753906 252.722656 394.847656 248.753906 C 397.605469 247.914063 400.378906 247.144531 402.878906 247.289063 "/>
<path style=" stroke:none;fill-rule:evenodd;fill:rgb(61.199951%,76.899719%,31.799316%);fill-opacity:1;" d="M 461.328125 160.8125 C 466.238281 160.722656 469.804688 162.660156 472.175781 166.703125 C 475.335938 172.101563 478.292969 177.609375 480.898438 183.296875 C 483.878906 189.792969 481.84375 195.6875 475.328125 199.464844 C 470.007813 202.550781 464.484375 205.273438 458.929688 207.914063 C 452.390625 211.023438 445.847656 214.128906 439.292969 217.207031 C 435.234375 219.109375 431.125 220.757813 426.496094 220.6875 C 422.601563 220.628906 419.546875 219.113281 417.503906 215.828125 C 413.457031 209.335938 409.980469 202.519531 406.933594 195.515625 C 404.433594 189.773438 406.503906 184.234375 411.859375 180.867188 C 414.0625 179.480469 416.492188 178.613281 418.886719 177.664063 C 430.417969 173.089844 441.601563 167.726563 452.917969 162.671875 C 455.6875 161.429688 458.53125 160.742188 461.328125 160.8125 "/>
<path style=" stroke:none;fill-rule:evenodd;fill:rgb(82.398987%,79.998779%,23.899841%);fill-opacity:1;" d="M 452.023438 268.757813 C 447.003906 268.664063 443.28125 266.941406 440.8125 262.71875 C 438.050781 257.996094 435.464844 253.195313 433.359375 248.144531 C 430.90625 242.246094 432.269531 237.527344 437.503906 233.832031 C 439.046875 232.742188 440.714844 231.875 442.460938 231.121094 C 455.042969 225.679688 467.382813 219.738281 479.179688 212.71875 C 481.789063 211.164063 484.628906 210.367188 487.695313 210.417969 C 491.179688 210.472656 493.882813 211.96875 495.488281 215.027344 C 498.210938 220.214844 500.898438 225.425781 503.335938 230.746094 C 505.726563 235.957031 503.742188 242.113281 498.734375 245.742188 C 495.03125 248.433594 490.929688 250.488281 486.921875 252.664063 C 478.367188 257.308594 469.757813 261.84375 461.164063 266.414063 C 458.214844 267.984375 455.007813 268.566406 452.023438 268.757813 "/>
<path style=" stroke:none;fill-rule:evenodd;fill:rgb(82.398987%,35.699463%,16.899109%);fill-opacity:1;" d="M 393.40625 341.0625 C 391.835938 341.171875 389.664063 340.921875 387.542969 340.359375 C 384.46875 339.539063 381.90625 337.992188 380.148438 335.222656 C 377.601563 331.195313 374.980469 327.210938 372.382813 323.214844 C 371.78125 322.292969 371.324219 321.308594 371.023438 320.25 C 369.816406 316.074219 371.222656 312.78125 375.054688 310.761719 C 376.566406 309.964844 378.195313 309.511719 379.835938 309.128906 C 394.144531 305.765625 408.1875 301.484375 422.164063 296.972656 C 425.898438 295.769531 429.707031 295.296875 433.597656 296.308594 C 436.613281 297.089844 439.109375 298.65625 440.773438 301.273438 C 443.4375 305.464844 446.007813 309.722656 448.074219 314.242188 C 450.996094 320.628906 449.078125 325.558594 442.519531 328.144531 C 434.757813 331.207031 426.675781 333.320313 418.652344 335.566406 C 412.257813 337.359375 405.890625 339.285156 399.363281 340.597656 C 397.59375 340.957031 395.820313 341.019531 393.40625 341.0625 "/>
<path style=" stroke:none;fill-rule:evenodd;fill:rgb(87.5%,56.898499%,17.999268%);fill-opacity:1;" d="M 263.835938 264.285156 C 259.101563 264.902344 254.476563 261.667969 251.042969 256.191406 C 247.59375 250.699219 245.035156 244.785156 242.808594 238.722656 C 242.46875 237.796875 242.246094 236.8125 242.109375 235.835938 C 241.585938 232.160156 243.488281 228.941406 246.890625 227.488281 C 248.742188 226.695313 250.699219 226.257813 252.65625 226.105469 C 259.605469 225.566406 266.363281 223.953125 273.199219 222.753906 C 276.808594 222.117188 280.402344 221.355469 284.023438 220.777344 C 286.179688 220.433594 288.355469 220.480469 290.53125 220.921875 C 293.949219 221.605469 296.507813 223.382813 298.335938 226.355469 C 301.457031 231.449219 303.925781 236.859375 306.328125 242.3125 C 307.492188 244.945313 308.667969 247.574219 309.148438 250.441406 C 310 255.515625 307.835938 258.839844 302.796875 259.746094 C 290.582031 261.949219 278.273438 263.410156 263.835938 264.285156 "/>
<path style=" stroke:none;fill-rule:evenodd;fill:rgb(17.599487%,64.299011%,49.398804%);fill-opacity:1;" d="M 505.335938 180.054688 C 502.273438 180.066406 499.464844 179.230469 497.761719 176.640625 C 493.667969 170.40625 490.359375 163.710938 487.675781 156.777344 C 485.539063 151.269531 488.460938 147.226563 492.648438 144.730469 C 503.121094 138.492188 513.613281 132.277344 523.839844 125.632813 C 525.507813 124.546875 527.273438 123.652344 529.210938 123.121094 C 532.308594 122.273438 535.230469 122.976563 536.96875 125.484375 C 541.035156 131.359375 544.488281 137.636719 546.640625 144.492188 C 548.21875 149.519531 546.523438 153.808594 542.46875 156.882813 C 533.472656 163.710938 524.382813 170.414063 515.050781 176.78125 C 512.117188 178.78125 508.898438 179.929688 505.335938 180.054688 "/>
<path style=" stroke:none;fill-rule:evenodd;fill:rgb(82.398987%,35.699463%,16.899109%);fill-opacity:1;" d="M 295.097656 307.480469 C 293.113281 307.480469 291.105469 307.671875 289.148438 307.445313 C 283.535156 306.800781 279.078125 304.238281 275.8125 299.460938 C 272.496094 294.605469 269.519531 289.578125 266.953125 284.300781 C 266.652344 283.683594 266.433594 283.015625 266.242188 282.347656 C 265.347656 279.203125 266.460938 276.882813 269.457031 275.628906 C 272.085938 274.527344 274.917969 274.546875 277.664063 274.363281 C 287.769531 273.675781 297.8125 272.386719 307.894531 271.523438 C 315.601563 270.867188 321.957031 273.40625 326.054688 280.394531 C 328.316406 284.246094 330.660156 288.054688 332.953125 291.890625 C 333.921875 293.515625 334.777344 295.191406 335.253906 297.042969 C 336.367188 301.398438 334.777344 304.226563 330.441406 305.390625 C 327.941406 306.0625 325.339844 306.179688 322.773438 306.3125 C 313.550781 306.792969 304.324219 307.179688 295.097656 307.605469 "/>
<g clip-path="url(#clip2)" clip-rule="nonzero">
<path style=" stroke:none;fill-rule:evenodd;fill:rgb(11.799622%,19.999695%,35.699463%);fill-opacity:1;" d="M 364.183594 548.148438 C 362.097656 554.375 357.785156 557.402344 351.246094 557.65625 C 347.761719 557.785156 344.324219 557.359375 340.898438 556.753906 C 339.492188 556.503906 338.929688 555.871094 339 554.355469 C 339.136719 551.386719 339.054688 548.40625 339.058594 545.433594 C 339.0625 542.558594 339.058594 539.683594 339.058594 536.808594 L 339.214844 536.808594 C 339.214844 530.960938 339.261719 525.109375 339.183594 519.261719 C 339.160156 517.675781 339.636719 516.976563 341.261719 516.734375 C 345.289063 516.136719 349.277344 515.574219 353.378906 516.234375 C 359.152344 517.164063 363.082031 520.285156 364.632813 525.882813 C 366.683594 533.300781 366.640625 540.8125 364.183594 548.148438 M 389.410156 522.125 C 385.726563 505.542969 375.996094 496.894531 359.128906 494.730469 C 351.96875 493.8125 344.84375 494.320313 337.734375 495.191406 C 331.402344 495.96875 325.21875 497.375 319.289063 499.789063 C 315.632813 501.277344 313.753906 503.679688 313.8125 507.980469 C 314.011719 523.082031 313.890625 538.1875 313.890625 553.292969 L 313.960938 553.292969 L 313.960938 575.351563 C 313.960938 582.804688 313.957031 590.257813 313.96875 597.707031 C 313.96875 598.800781 313.984375 599.898438 314.105469 600.984375 C 314.960938 608.730469 320.222656 614.128906 327.933594 615.125 C 331.140625 615.539063 334.253906 614.847656 337.359375 614.125 C 338.480469 613.859375 338.710938 613.15625 338.710938 612.164063 C 338.707031 610.574219 338.796875 608.984375 338.796875 607.394531 C 338.804688 598.351563 338.792969 589.308594 338.808594 580.265625 C 338.808594 577.953125 338.851563 577.917969 341.050781 578.257813 C 345.671875 578.96875 350.3125 579.472656 354.992188 579.433594 C 371.773438 579.296875 383.882813 570.257813 388.515625 554.261719 C 391.589844 543.652344 391.792969 532.863281 389.410156 522.125 "/>
</g>
<path style=" stroke:none;fill-rule:evenodd;fill:rgb(11.799622%,19.999695%,35.699463%);fill-opacity:1;" d="M 493.382813 554.898438 C 493.382813 557.277344 493.347656 559.652344 493.398438 562.027344 C 493.417969 563.113281 492.953125 563.699219 491.925781 563.894531 C 487.144531 564.792969 482.351563 565.550781 477.484375 564.578125 C 475.425781 564.167969 473.492188 563.414063 471.816406 562.109375 C 466.738281 558.167969 467.449219 550.726563 473.175781 547.835938 C 475.242188 546.792969 477.472656 546.261719 479.757813 546.195313 C 483.71875 546.085938 487.679688 546.152344 491.640625 546.082031 C 492.882813 546.058594 493.441406 546.449219 493.402344 547.765625 C 493.335938 550.140625 493.382813 552.519531 493.382813 554.898438 M 518.097656 546.054688 C 518.074219 546.054688 518.054688 546.054688 518.03125 546.054688 C 518.03125 538.207031 518.246094 530.347656 517.984375 522.507813 C 517.5625 509.898438 510.820313 501.378906 499.019531 498.078125 C 496.242188 497.300781 493.40625 496.824219 490.519531 496.601563 C 482.445313 495.976563 474.4375 496.59375 466.484375 497.972656 C 462.769531 498.617188 459.105469 499.558594 455.5625 500.875 C 453.164063 501.765625 452.277344 502.949219 452.703125 505.097656 C 453.519531 509.183594 454.453125 513.253906 455.5 517.285156 C 456.011719 519.25 457.308594 519.992188 459.324219 519.851563 C 460.011719 519.808594 460.683594 519.597656 461.359375 519.441406 C 467.863281 517.957031 474.4375 516.96875 481.117188 516.832031 C 483.308594 516.789063 485.484375 516.90625 487.613281 517.5 C 490.785156 518.386719 492.78125 520.363281 493.308594 523.667969 C 493.464844 524.640625 493.492188 525.644531 493.492188 526.632813 C 493.503906 529.101563 493.484375 529.136719 491.105469 529.148438 C 486.535156 529.171875 481.964844 529.128906 477.394531 529.164063 C 471.992188 529.203125 466.6875 529.902344 461.621094 531.867188 C 453.070313 535.1875 447.308594 541.019531 445.503906 550.242188 C 444.832031 553.683594 444.878906 557.183594 445.394531 560.636719 C 446.523438 568.21875 450.503906 573.855469 457.308594 577.453125 C 460.226563 578.992188 463.324219 580.03125 466.539063 580.730469 C 475.386719 582.652344 484.320313 582.382813 493.242188 581.578125 C 499.886719 580.976563 506.386719 579.636719 512.640625 577.1875 C 516.449219 575.695313 518.234375 573.191406 518.144531 569.007813 C 517.976563 561.359375 518.097656 553.707031 518.097656 546.054688 "/>
<path style=" stroke:none;fill-rule:evenodd;fill:rgb(11.799622%,19.999695%,35.699463%);fill-opacity:1;" d="M 275.5625 530.054688 C 267.242188 530 258.917969 530.007813 250.59375 529.984375 C 250.410156 529.984375 250.226563 529.855469 249.765625 529.683594 C 249.988281 528.371094 250.121094 527.1875 250.398438 526.039063 C 251.941406 519.707031 256.902344 515.914063 263.726563 516.03125 C 272.488281 516.179688 276.171875 520.710938 277.058594 528.203125 C 277.199219 529.371094 277.003906 530.066406 275.5625 530.054688 M 282.925781 502.230469 C 275.453125 496.949219 266.953125 495.515625 257.945313 496.574219 C 243.164063 498.3125 232.796875 505.957031 227.632813 519.929688 C 222.714844 533.246094 222.984375 546.859375 227.273438 560.277344 C 230.640625 570.808594 238.09375 577.335938 248.757813 580.257813 C 253.789063 581.632813 258.898438 582.140625 263.746094 582.105469 C 267.765625 582.128906 271.429688 581.933594 275.0625 581.28125 C 280.859375 580.238281 286.476563 578.648438 291.535156 575.507813 C 294.574219 573.621094 295.023438 572.292969 293.675781 569.085938 C 292.363281 565.976563 291 562.894531 289.605469 559.824219 C 288.253906 556.859375 287.09375 556.394531 283.921875 557.449219 C 281.382813 558.289063 278.882813 559.269531 276.308594 559.988281 C 270.671875 561.574219 264.953125 562 259.257813 560.363281 C 253.828125 558.796875 250.355469 555.332031 249.503906 549.5625 C 249.109375 546.917969 249.105469 546.878906 251.796875 546.875 C 262.324219 546.863281 272.851563 546.878906 283.382813 546.867188 C 285.964844 546.863281 288.539063 546.820313 291.070313 546.164063 C 293.898438 545.429688 295.753906 543.699219 296.734375 540.96875 C 297.382813 539.167969 297.585938 537.285156 297.703125 535.410156 C 298.582031 521.773438 294.355469 510.308594 282.925781 502.230469 "/>
<path style=" stroke:none;fill-rule:evenodd;fill:rgb(11.799622%,19.999695%,35.699463%);fill-opacity:1;" d="M 678 530.066406 C 669.859375 530 661.714844 530.027344 653.570313 530.011719 C 653.289063 530.011719 653.007813 529.875 652.734375 529.804688 C 652.5 521.242188 658.730469 515.464844 667.355469 516.046875 C 676.570313 516.671875 679.054688 522.515625 679.652344 528.058594 C 679.792969 529.359375 679.59375 530.078125 678 530.066406 M 700.378906 529.160156 C 699.339844 516.402344 693.679688 506.441406 682.25 500.234375 C 675.492188 496.566406 668.179688 495.671875 660.578125 496.570313 C 645.675781 498.335938 635.296875 506.089844 630.160156 520.199219 C 625.527344 532.917969 625.765625 545.945313 629.445313 558.851563 C 632.824219 570.710938 640.902344 577.894531 652.820313 580.617188 C 663.671875 583.101563 674.507813 582.679688 685.195313 579.492188 C 688.632813 578.464844 691.917969 577.058594 694.894531 575.027344 C 696.90625 573.65625 697.539063 572.292969 696.707031 570.210938 C 695.164063 566.34375 693.476563 562.527344 691.683594 558.769531 C 690.769531 556.863281 689.496094 556.476563 687.457031 557.066406 C 686.699219 557.285156 685.988281 557.664063 685.246094 557.949219 C 680.589844 559.726563 675.839844 561.125 670.816406 561.316406 C 666.710938 561.472656 662.667969 561.113281 658.933594 559.195313 C 654.8125 557.078125 652.546875 553.65625 652.082031 549.0625 C 651.878906 547.023438 651.988281 546.890625 654.121094 546.882813 C 660.082031 546.855469 666.039063 546.871094 672 546.871094 C 676.765625 546.871094 681.53125 546.894531 686.300781 546.859375 C 688.382813 546.847656 690.46875 546.851563 692.523438 546.410156 C 697.007813 545.449219 699.046875 543.414063 699.886719 538.957031 C 700.496094 535.714844 700.644531 532.433594 700.378906 529.160156 "/>
</g>
</svg>
